# xmcd
#
# Track frame offsets:
#	150
#	20518
#	42842
#	70812
#	93694
#	117662
#	152003
#	172129
#
# Disc length: 2975 seconds
#
# Revision: 1
# Processed by: cddbd v1.5.1PL2 Copyright (c) Steve Scherf et al.
# Submitted via: EasyCDDAExtractor 9.0.0.1
#
DISCID=6c0b9d08
DTITLE=Kiss - Playhouse Theatre Edinburgh 28-10-83 Disc 1
DYEAR=1983
DGENRE=Hard Rock
TTITLE0=Creatures Of The Night
TTITLE1=Detroit Rock City 
TTITLE2=Cold Gin
TTITLE3=Fits Like A Glove 
TTITLE4=Firehouse 
TTITLE5=Exciter
TTITLE6=War Machine
TTITLE7=Gimme More
EXTD=
EXTT0=
EXTT1=
EXTT2=
EXTT3=
EXTT4=
EXTT5=
EXTT6=
EXTT7=
PLAYORDER=
